<svg width="175" height="17" viewBox="0 0 175 17" fill="none" xmlns="http://www.w3.org/2000/svg">
<path d="M11.1869 7.65425V0.557861H15.5873V8.18105C15.5873 12.6744 12.9222 16.3001 7.77814 16.3001C2.63403 16.3001 0 12.6744 0 8.18105V0.557861H4.40038V7.68524C4.40038 10.0404 5.51597 12.0546 7.77814 12.0546C10.0403 12.0546 11.1869 10.0404 11.1869 7.65425Z" fill="#0747A1"/>
<path d="M23.4902 8.76984V15.8972H19.0898V8.24304C19.0898 3.78068 21.7239 0.124023 27.0849 0.124023C32.4459 0.124023 35.1419 3.74969 35.1419 8.24304V15.8972H30.7416V8.76984C30.7416 6.41471 29.595 4.40045 27.0849 4.40045C24.5748 4.40045 23.4902 6.41471 23.4902 8.76984Z" fill="#0747A1"/>
<path d="M38.7188 8.21175C38.7188 3.7494 42.3444 0.0927421 46.9617 0.123731C49.9056 0.154719 52.6326 1.48723 54.0271 4.46213L50.4015 6.4454C49.7197 5.11289 48.4802 4.2762 46.9617 4.2762C44.7615 4.2762 43.1191 6.04255 43.1191 8.21175C43.1191 10.381 44.7615 12.1473 46.9617 12.1473C48.4802 12.1473 49.7197 11.3106 50.4015 9.9781L54.0271 11.9614C52.6326 14.9363 49.9056 16.2688 46.9617 16.2998C42.3444 16.3308 38.7188 12.6431 38.7188 8.21175Z" fill="#0747A1"/>
<path d="M57.6562 8.1808C57.6562 3.74943 61.2819 0.0927734 65.9612 0.0927734C70.6405 0.0927734 74.2971 3.78042 74.2971 8.1808C74.2971 12.5812 70.6715 16.2998 65.9612 16.2998C61.2509 16.2998 57.6562 12.6432 57.6562 8.1808ZM69.8967 8.21178C69.8967 6.04258 68.2234 4.24524 65.9612 4.24524C63.699 4.24524 62.0566 6.04258 62.0566 8.21178C62.0566 10.381 63.699 12.1783 65.9612 12.1783C68.2234 12.1783 69.8967 10.381 69.8967 8.21178Z" fill="#0747A1"/>
<path d="M104.74 7.8711V15.8972H100.34V8.61483C100.34 6.2597 99.3172 4.27643 96.9 4.27643C94.4829 4.27643 93.4913 6.22871 93.4913 8.55285V15.8972H89.0909V8.58384C89.0909 6.22871 88.0683 4.27643 85.6822 4.27643C83.2961 4.27643 82.2734 6.2597 82.2734 8.58384V15.8972H77.873V7.8711C77.873 3.59468 80.3831 0 85.3413 0C88.2852 0 90.4234 1.30152 91.3221 3.40875C92.2828 1.30152 94.452 0 97.2099 0C102.199 0 104.74 3.59468 104.74 7.8711Z" fill="#0747A1"/>
<path d="M135.074 7.8711V15.8972H130.674V8.61483C130.674 6.2597 129.651 4.27643 127.234 4.27643C124.817 4.27643 123.825 6.22871 123.825 8.55285V15.8972H119.425V8.58384C119.425 6.22871 118.402 4.27643 116.016 4.27643C113.63 4.27643 112.607 6.2597 112.607 8.58384V15.8972H108.207V7.8711C108.207 3.59468 110.717 0 115.675 0C118.619 0 120.757 1.30152 121.656 3.40875C122.617 1.30152 124.786 0 127.544 0C132.533 0 135.074 3.59468 135.074 7.8711Z" fill="#0747A1"/>
<path d="M138.65 8.18104C138.65 3.74967 142.276 0.0930176 146.955 0.0930176C151.635 0.0930176 155.291 3.78066 155.291 8.18104C155.291 12.5814 151.666 16.3001 146.955 16.3001C142.245 16.3001 138.65 12.6434 138.65 8.18104ZM150.891 8.21203C150.891 6.04283 149.217 4.24549 146.955 4.24549C144.693 4.24549 143.051 6.04283 143.051 8.21203C143.051 10.3812 144.693 12.1786 146.955 12.1786C149.217 12.1786 150.891 10.3812 150.891 8.21203Z" fill="#0747A1"/>
<path d="M163.268 8.76984V15.8972H158.867V8.24304C158.867 3.78068 161.501 0.124023 166.862 0.124023C172.223 0.124023 174.919 3.74969 174.919 8.24304V15.8972H170.519V8.76984C170.519 6.41471 169.372 4.40045 166.862 4.40045C164.352 4.40045 163.268 6.41471 163.268 8.76984Z" fill="#0747A1"/>
</svg>
