<svg width="238" height="198" viewBox="0 0 238 198" fill="none" xmlns="http://www.w3.org/2000/svg">
<g id="Group 228">
<path id="Subtract" fill-rule="evenodd" clip-rule="evenodd" d="M37.0619 157.828L0.000976563 157.828L0.000973323 120.767L37.0619 120.767L37.0619 157.828ZM4.15408 153.674L32.9082 153.674L32.9082 124.92L4.15408 124.92L4.15408 153.674ZM7.34888 151.118L9.26582 151.118L9.26582 127.156L7.34888 127.156L7.34888 151.118ZM14.3772 151.118L12.4602 151.118L12.4602 127.156L14.3772 127.156L14.3772 151.118ZM17.5726 151.118L19.4895 151.118L19.4895 127.156L17.5726 127.156L17.5726 151.118ZM24.6009 151.118L22.684 151.118L22.684 127.156L24.6009 127.156L24.6009 151.118ZM27.7963 151.118L29.7133 151.118L29.7133 127.156L27.7963 127.156L27.7963 151.118Z" fill="#0091FF"/>
<path id="Subtract_2" fill-rule="evenodd" clip-rule="evenodd" d="M77.3174 40.2558L77.3174 77.3167L40.2565 77.3167L40.2565 40.2558L77.3174 40.2558ZM73.165 73.1641L73.165 44.41L44.4109 44.41L44.4109 73.1642L73.165 73.1641ZM70.6094 69.97L70.6094 68.0531L46.6476 68.0531L46.6476 69.97L70.6094 69.97ZM70.6091 62.9406L70.6091 64.8575L46.6473 64.8575L46.6473 62.9406L70.6091 62.9406ZM70.6091 59.7472L70.6091 57.8302L46.6473 57.8302L46.6473 59.7472L70.6091 59.7472ZM70.6091 52.7179L70.6091 54.6348L46.6473 54.6348L46.6473 52.7179L70.6091 52.7179ZM70.6091 49.5222L70.6091 47.6053L46.6473 47.6053L46.6473 49.5222L70.6091 49.5222Z" fill="#49E0C6"/>
<path id="Subtract_3" fill-rule="evenodd" clip-rule="evenodd" d="M120.767 0.00122718L157.828 0.0012207L157.828 37.0621L120.767 37.0621L120.767 0.00122718ZM153.675 4.15464L124.921 4.15464L124.921 32.9088L153.675 32.9088L153.675 4.15464ZM150.48 6.71082L148.563 6.71082L148.563 30.6726L150.48 30.6726L150.48 6.71082ZM143.451 6.71064L145.368 6.71064L145.368 30.6724L143.451 30.6724L143.451 6.71064ZM140.256 6.71064L138.339 6.71064L138.339 30.6724L140.256 30.6724L140.256 6.71064ZM133.228 6.71064L135.145 6.71064L135.145 30.6724L133.228 30.6724L133.228 6.71064ZM130.032 6.71064L128.115 6.71064L128.115 30.6724L130.032 30.6724L130.032 6.71064Z" fill="#0091FF"/>
<path id="Subtract_4" fill-rule="evenodd" clip-rule="evenodd" d="M77.3168 157.828L40.2559 157.828L40.2559 120.767L77.3168 120.767L77.3168 157.828ZM44.4102 153.674L73.1643 153.674L73.1643 124.92L44.4102 124.92L44.4102 153.674ZM47.6047 151.118L49.5216 151.118L49.5216 127.156L47.6047 127.156L47.6047 151.118ZM54.634 151.118L52.717 151.118L52.717 127.156L54.6339 127.156L54.634 151.118ZM57.8284 151.118L59.7453 151.118L59.7453 127.156L57.8284 127.156L57.8284 151.118ZM64.8567 151.118L62.9397 151.118L62.9397 127.156L64.8567 127.156L64.8567 151.118ZM68.0521 151.118L69.969 151.118L69.969 127.156L68.0521 127.156L68.0521 151.118Z" fill="#FDB353"/>
<path id="Subtract_5" fill-rule="evenodd" clip-rule="evenodd" d="M77.3174 0.00038147L77.3174 37.0613L40.2565 37.0613L40.2565 0.00038633L77.3174 0.00038147ZM73.165 32.908L73.165 4.1538L44.4109 4.15381L44.4109 32.908L73.165 32.908ZM70.6094 29.7133L70.6094 27.7964L46.6476 27.7964L46.6476 29.7134L70.6094 29.7133ZM70.6091 22.6838L70.6091 24.6008L46.6473 24.6008L46.6473 22.6838L70.6091 22.6838ZM70.6091 19.4904L70.6091 17.5734L46.6473 17.5734L46.6473 19.4904L70.6091 19.4904ZM70.6091 12.4611L70.6091 14.378L46.6473 14.378L46.6473 12.4611L70.6091 12.4611ZM70.6091 9.26543L70.6091 7.34848L46.6473 7.34849L46.6473 9.26543L70.6091 9.26543Z" fill="#FF8181"/>
<path id="Subtract_6" fill-rule="evenodd" clip-rule="evenodd" d="M157.828 80.5126L157.828 117.573L120.767 117.573L120.767 80.5126L157.828 80.5126ZM153.675 113.42L153.675 84.6654L124.921 84.6654L124.921 113.42L153.675 113.42ZM151.119 110.225L151.119 108.308L127.158 108.308L127.158 110.225L151.119 110.225ZM151.119 103.195L151.119 105.112L127.158 105.112L127.158 103.195L151.119 103.195ZM151.119 100.002L151.119 98.0849L127.158 98.0849L127.158 100.002L151.119 100.002ZM151.119 92.9726L151.119 94.8895L127.158 94.8895L127.158 92.9726L151.119 92.9726ZM151.119 89.7769L151.119 87.86L127.158 87.86L127.158 89.7769L151.119 89.7769Z" fill="#0091FF"/>
<path id="Subtract_7" fill-rule="evenodd" clip-rule="evenodd" d="M80.5123 0.000983042L117.573 0.000976562L117.573 37.0619L80.5124 37.0619L80.5123 0.000983042ZM113.42 4.15466L84.6658 4.15467L84.6658 32.9088L113.42 32.9088L113.42 4.15466ZM110.224 6.71066L108.307 6.71066L108.307 30.6725L110.224 30.6725L110.224 6.71066ZM103.195 6.71066L105.112 6.71066L105.112 30.6725L103.195 30.6725L103.195 6.71066ZM100 6.71066L98.0835 6.71066L98.0835 30.6725L100 30.6725L100 6.71066ZM92.9722 6.71067L94.8891 6.71066L94.8891 30.6725L92.9722 30.6725L92.9722 6.71067ZM89.7767 6.71066L87.8598 6.71067L87.8598 30.6725L89.7768 30.6725L89.7767 6.71066Z" fill="#0091FF"/>
<path id="Subtract_8" fill-rule="evenodd" clip-rule="evenodd" d="M77.3177 117.574L0.000976562 117.574L0.000973323 80.5128L77.3177 80.5128L77.3177 117.574ZM4.15408 113.419L73.164 113.419L73.164 84.6652L4.15408 84.6652L4.15408 113.419ZM7.02906 110.864L8.946 110.864L8.946 86.9023L7.02906 86.9023L7.02906 110.864ZM14.0573 110.864L12.1404 110.864L12.1404 86.9023L14.0573 86.9023L14.0573 110.864ZM17.2528 110.864L19.1697 110.864L19.1697 86.9023L17.2528 86.9023L17.2528 110.864ZM24.2811 110.864L22.3641 110.864L22.3641 86.9023L24.2811 86.9023L24.2811 110.864ZM27.4765 110.864L29.3934 110.864L29.3934 86.9023L27.4765 86.9023L27.4765 110.864ZM34.5058 110.864L32.5888 110.864L32.5888 86.9023L34.5058 86.9023L34.5058 110.864ZM37.7002 110.864L39.6171 110.864L39.6171 86.9023L37.7002 86.9023L37.7002 110.864ZM44.7285 110.864L42.8115 110.864L42.8115 86.9023L44.7285 86.9023L44.7285 110.864ZM47.9239 110.864L49.8408 110.864L49.8408 86.9023L47.9239 86.9023L47.9239 110.864ZM54.9532 110.864L53.0362 110.864L53.0362 86.9023L54.9532 86.9023L54.9532 110.864ZM58.1476 110.864L60.0646 110.864L60.0646 86.9023L58.1476 86.9023L58.1476 110.864ZM65.1769 110.864L63.26 110.864L63.26 86.9023L65.1769 86.9023L65.1769 110.864ZM68.3713 110.864L70.2883 110.864L70.2883 86.9023L68.3713 86.9023L68.3713 110.864Z" fill="#FF8181"/>
<path id="Subtract_9" fill-rule="evenodd" clip-rule="evenodd" d="M37.062 -6.10352e-05L37.062 77.3167L0.00111389 77.3167L0.00110375 -5.61752e-05L37.062 -6.10352e-05ZM32.9089 73.1643L32.9089 4.15433L4.15475 4.15433L4.15475 73.1643L32.9089 73.1643ZM30.3522 70.2874L30.3522 68.3705L6.39038 68.3705L6.39038 70.2874L30.3522 70.2874ZM30.3521 63.2579L30.3521 65.1749L6.3903 65.1749L6.3903 63.2579L30.3521 63.2579ZM30.3521 60.0645L30.3521 58.1476L6.39031 58.1476L6.39031 60.0645L30.3521 60.0645ZM30.3521 53.0352L30.3521 54.9522L6.39031 54.9522L6.39031 53.0352L30.3521 53.0352ZM30.3521 49.8396L30.3521 47.9226L6.3903 47.9226L6.3903 49.8396L30.3521 49.8396ZM30.3521 42.8103L30.3521 44.7272L6.39031 44.7272L6.39031 42.8103L30.3521 42.8103ZM30.3521 39.6166L30.3521 37.6996L6.39031 37.6996L6.39031 39.6166L30.3521 39.6166ZM30.3521 32.5873L30.3521 34.5042L6.3903 34.5042L6.3903 32.5873L30.3521 32.5873ZM30.3521 29.3926L30.3521 27.4757L6.39031 27.4757L6.39031 29.3926L30.3521 29.3926ZM30.3521 22.3643L30.3521 24.2813L6.39031 24.2813L6.3903 22.3643L30.3521 22.3643ZM30.3521 19.1687L30.3521 17.2517L6.3903 17.2517L6.3903 19.1687L30.3521 19.1687ZM30.3521 12.1394L30.3521 14.0563L6.39031 14.0563L6.39031 12.1394L30.3521 12.1394ZM30.3521 8.9447L30.3521 7.02776L6.3903 7.02776L6.39031 8.9447L30.3521 8.9447Z" fill="#FDB353"/>
<path id="Subtract_10" fill-rule="evenodd" clip-rule="evenodd" d="M117.573 80.5126L117.573 157.829L80.5123 157.829L80.5123 80.5126L117.573 80.5126ZM113.42 153.675L113.42 84.6655L84.6658 84.6655L84.6658 153.675L113.42 153.675ZM110.864 150.8L110.864 148.884L86.902 148.884L86.902 150.8L110.864 150.8ZM110.864 143.771L110.864 145.688L86.902 145.688L86.902 143.771L110.864 143.771ZM110.864 140.577L110.864 138.661L86.902 138.661L86.902 140.577L110.864 140.577ZM110.864 133.548L110.864 135.465L86.902 135.465L86.902 133.548L110.864 133.548ZM110.864 130.353L110.864 128.436L86.902 128.436L86.902 130.353L110.864 130.353ZM110.864 123.323L110.864 125.24L86.902 125.24L86.902 123.323L110.864 123.323ZM110.864 120.13L110.864 118.213L86.902 118.213L86.902 120.13L110.864 120.13ZM110.864 113.1L110.864 115.017L86.902 115.017L86.902 113.1L110.864 113.1ZM110.864 109.906L110.864 107.989L86.902 107.989L86.902 109.906L110.864 109.906ZM110.864 102.877L110.864 104.794L86.902 104.794L86.902 102.877L110.864 102.877ZM110.864 99.6816L110.864 97.7647L86.902 97.7647L86.902 99.6816L110.864 99.6816ZM110.864 92.6524L110.864 94.5693L86.902 94.5693L86.902 92.6524L110.864 92.6524ZM110.864 89.4577L110.864 87.5407L86.902 87.5407L86.902 89.4577L110.864 89.4577Z" fill="#FDB353"/>
<path id="Subtract_11" fill-rule="evenodd" clip-rule="evenodd" d="M80.5114 40.2559L157.828 40.2559L157.828 77.3168L80.5114 77.3168L80.5114 40.2559ZM153.675 44.4099L84.6647 44.4099L84.6647 73.1641L153.675 73.1641L153.675 44.4099ZM150.8 46.9645L148.883 46.9645L148.883 70.9263L150.8 70.9263L150.8 46.9645ZM143.771 46.9645L145.688 46.9645L145.688 70.9263L143.771 70.9263L143.771 46.9645ZM140.576 46.9645L138.659 46.9645L138.659 70.9263L140.576 70.9263L140.576 46.9645ZM133.548 46.9645L135.464 46.9645L135.464 70.9263L133.548 70.9263L133.548 46.9645ZM130.352 46.9645L128.435 46.9645L128.435 70.9263L130.352 70.9263L130.352 46.9645ZM123.323 46.9645L125.24 46.9645L125.24 70.9263L123.323 70.9263L123.323 46.9645ZM120.128 46.9645L118.211 46.9645L118.211 70.9263L120.128 70.9263L120.128 46.9645ZM113.1 46.9645L115.017 46.9645L115.017 70.9263L113.1 70.9263L113.1 46.9645ZM109.905 46.9645L107.988 46.9645L107.988 70.9263L109.905 70.9263L109.905 46.9645ZM102.875 46.9645L104.792 46.9645L104.792 70.9263L102.875 70.9263L102.875 46.9645ZM99.681 46.9645L97.764 46.9645L97.764 70.9263L99.681 70.9263L99.681 46.9645ZM92.6517 46.9645L94.5686 46.9645L94.5686 70.9263L92.6517 70.9263L92.6517 46.9645ZM89.4573 46.9645L87.5403 46.9645L87.5403 70.9263L89.4573 70.9263L89.4573 46.9645Z" fill="#49E0C6"/>
<path id="Subtract_12" fill-rule="evenodd" clip-rule="evenodd" d="M160.689 77.3175L160.689 40.2566L197.75 40.2566L197.75 77.3175L160.689 77.3175ZM164.843 44.4087L164.843 73.1628L193.597 73.1628L193.597 44.4087L164.843 44.4087ZM167.398 47.6029L167.398 49.5199L191.36 49.5199L191.36 47.6029L167.398 47.6029ZM167.398 54.6325L167.398 52.7155L191.36 52.7155L191.36 54.6324L167.398 54.6325ZM167.398 57.8259L167.398 59.7428L191.36 59.7428L191.36 57.8259L167.398 57.8259ZM167.398 64.8552L167.398 62.9382L191.36 62.9382L191.36 64.8552L167.398 64.8552ZM167.398 68.0508L167.398 69.9678L191.36 69.9678L191.36 68.0508L167.398 68.0508Z" fill="#FDB353"/>
<path id="Subtract_13" fill-rule="evenodd" clip-rule="evenodd" d="M0.00293779 197.915L0.00292969 160.854L37.0638 160.854L37.0638 197.915L0.00293779 197.915ZM4.15607 165.008L4.15608 193.762L32.9102 193.762L32.9102 165.008L4.15607 165.008ZM6.71176 168.202L6.71176 170.119L30.6735 170.119L30.6735 168.202L6.71176 168.202ZM6.712 175.231L6.712 173.314L30.6738 173.314L30.6738 175.231L6.712 175.231ZM6.712 178.426L6.712 180.343L30.6738 180.343L30.6738 178.426L6.712 178.426ZM6.712 185.455L6.712 183.538L30.6738 183.538L30.6738 185.455L6.712 185.455ZM6.712 188.65L6.712 190.567L30.6738 190.567L30.6738 188.65L6.712 188.65Z" fill="#0091FF"/>
<path id="Subtract_14" fill-rule="evenodd" clip-rule="evenodd" d="M160.689 1.35185e-05L238.006 0L238.006 37.0609L160.689 37.0609L160.689 1.35185e-05ZM233.852 4.15438L164.842 4.15439L164.842 32.9085L233.852 32.9085L233.852 4.15438ZM230.977 6.70988L229.06 6.70988L229.06 30.6717L230.977 30.6717L230.977 6.70988ZM223.949 6.70988L225.866 6.70988L225.866 30.6717L223.949 30.6717L223.949 6.70988ZM220.753 6.70988L218.836 6.70988L218.836 30.6717L220.753 30.6717L220.753 6.70988ZM213.725 6.70988L215.642 6.70988L215.642 30.6717L213.725 30.6717L213.725 6.70988ZM210.529 6.70988L208.613 6.70988L208.613 30.6717L210.529 30.6717L210.529 6.70988ZM203.5 6.70988L205.417 6.70988L205.417 30.6717L203.5 30.6717L203.5 6.70988ZM200.306 6.70988L198.389 6.70988L198.389 30.6717L200.306 30.6717L200.306 6.70988ZM193.277 6.70988L195.194 6.70988L195.194 30.6717L193.277 30.6717L193.277 6.70988ZM190.082 6.70988L188.165 6.70988L188.165 30.6717L190.082 30.6717L190.082 6.70988ZM183.053 6.70988L184.97 6.70988L184.97 30.6717L183.053 30.6717L183.053 6.70988ZM179.858 6.70988L177.941 6.70988L177.941 30.6717L179.858 30.6717L179.858 6.70988ZM172.829 6.70988L174.746 6.70988L174.746 30.6717L172.829 30.6717L172.829 6.70988ZM169.635 6.70988L167.718 6.70988L167.718 30.6717L169.635 30.6717L169.635 6.70988Z" fill="#FF8181"/>
</g>
</svg>
